<?xml version="1.0" encoding="UTF-8" standalone="no"?>
<svg
   xmlns:dc="http://purl.org/dc/elements/1.1/"
   xmlns:cc="http://creativecommons.org/ns#"
   xmlns:rdf="http://www.w3.org/1999/02/22-rdf-syntax-ns#"
   xmlns:svg="http://www.w3.org/2000/svg"
   xmlns="http://www.w3.org/2000/svg"
   xmlns:sodipodi="http://sodipodi.sourceforge.net/DTD/sodipodi-0.dtd"
   xmlns:inkscape="http://www.inkscape.org/namespaces/inkscape"
   width="300"
   height="300"
   viewBox="0 0 79.374998 79.375002"
   version="1.1"
   id="svg876"
   inkscape:version="1.0.2-2 (e86c870879, 2021-01-15)"
   sodipodi:docname="logoMedexware300x300linkedIn.svg"
   inkscape:export-filename="C:\Users\jpbiz\Documents\Logos Oftacomp y Medexware al 26.4.21\logoMedexware300x300.png"
   inkscape:export-xdpi="96"
   inkscape:export-ydpi="96">
  <defs
     id="defs870" />
  <sodipodi:namedview
     id="base"
     pagecolor="#ffffff"
     bordercolor="#666666"
     borderopacity="1.0"
     inkscape:pageopacity="0.0"
     inkscape:pageshadow="2"
     inkscape:zoom="0.98994949"
     inkscape:cx="-23.948686"
     inkscape:cy="322.57694"
     inkscape:document-units="mm"
     inkscape:current-layer="layer1"
     inkscape:document-rotation="0"
     showgrid="false"
     units="px"
     inkscape:window-width="1920"
     inkscape:window-height="1001"
     inkscape:window-x="-9"
     inkscape:window-y="-9"
     inkscape:window-maximized="1" />
  <metadata
     id="metadata873">
    <rdf:RDF>
      <cc:Work
         rdf:about="">
        <dc:format>image/svg+xml</dc:format>
        <dc:type
           rdf:resource="http://purl.org/dc/dcmitype/StillImage" />
        <dc:title></dc:title>
      </cc:Work>
    </rdf:RDF>
  </metadata>
  <g
     inkscape:label="Capa 1"
     inkscape:groupmode="layer"
     id="layer1">
    <path
       class="cls-1"
       d="m 18.559925,19.30852 a 4.1919666,4.1919666 0 0 1 7.12976,3.416037 4.1724465,4.1724465 0 0 0 1.205374,3.220836 v 0 0 l 2.928032,2.928033 v 0 0 0 a 4.1724465,4.1724465 0 0 0 3.118354,1.215134 v 0 h 0.15128 0.02927 0.175682 0.409925 0.165925 0.03905 0.15128 v 0 a 4.1724465,4.1724465 0 0 0 3.118351,-1.215134 v 0 0 0 l 2.928033,-2.928033 v 0 0 a 4.1724465,4.1724465 0 0 0 1.215134,-3.215956 4.2066068,4.2066068 0 0 1 0.07807,-1.371294 v -0.03416 q 0.04392,-0.200082 0.112252,-0.390405 v -0.06345 q 0.06345,-0.180569 0.141468,-0.351364 l 0.03412,-0.07321 q 0.083,-0.175682 0.185439,-0.341603 l 0.03412,-0.05856 A 4.1675663,4.1675663 0 0 1 42.1646,19.684267 v 0 a 4.1773265,4.1773265 0 0 1 6.568551,0 v 0 a 4.1724465,4.1724465 0 0 1 0.253775,0.361124 l 0.03412,0.05856 q 0.10255,0.165925 0.185439,0.336723 l 0.03412,0.07321 q 0.07802,0.170794 0.141467,0.351364 v 0.06832 q 0.06345,0.190323 0.107346,0.385524 v 0.04392 a 4.2066068,4.2066068 0 0 1 0.07802,1.366415 4.1724465,4.1724465 0 0 0 1.215128,3.215955 v 0 0 l 2.928033,2.928033 v 0 0 0 a 4.1724465,4.1724465 0 0 0 3.118359,1.215134 v 0 h 0.151244 0.0391 0.165998 0.409925 0.165999 0.0391 0.151244 v 0 a 4.1724465,4.1724465 0 0 0 3.118359,-1.215134 v 0 0 0 l 2.928033,-2.928033 v 0 0 a 4.1724465,4.1724465 0 0 0 1.215129,-3.230595 4.1919666,4.1919666 0 1 1 3.611246,3.708841 v 0 a 4.1724465,4.1724465 0 0 0 -3.118359,1.215133 v 0 0 0 l -2.928033,2.928032 v 0 0 a 4.1724465,4.1724465 0 0 0 -1.215129,3.230597 4.1968466,4.1968466 0 1 1 -8.344884,0 4.1724465,4.1724465 0 0 0 -1.215147,-3.230597 v 0 0 l -2.928017,-2.928036 v 0 0 0 a 4.1724465,4.1724465 0 0 0 -3.118341,-1.215133 v 0 0 h -0.219616 -0.05367 -0.165998 -0.219598 -0.165999 -0.05367 -0.219616 v 0 0 a 4.1724465,4.1724465 0 0 0 -3.118341,1.215133 v 0 0 0 l -2.928044,2.928032 v 0 0 a 4.1724465,4.1724465 0 0 0 -1.215134,3.230597 4.1968466,4.1968466 0 1 1 -8.344893,0 4.1724465,4.1724465 0 0 0 -1.215133,-3.230597 v 0 0 l -2.928038,-2.928032 v 0 0 0 a 4.1724465,4.1724465 0 0 0 -3.118356,-1.215133 v 0 a 4.1870866,4.1870866 0 0 1 -3.518516,-7.115119 z"
       id="path8"
       style="fill:#808f97;stroke-width:0.488005" />
    <path
       class="cls-2"
       d="m 6.4622723,21.12878 a 4.1822065,4.1822065 0 0 1 3.5185171,-1.185854 v 0 a 4.1724465,4.1724465 0 0 0 3.1183556,-1.220013 v 0 0 0 l 2.928032,-2.928032 v 0 0 a 4.1724465,4.1724465 0 0 0 1.215133,-3.230597 4.1968466,4.1968466 0 1 1 8.344893,0 4.1675663,4.1675663 0 0 0 1.215134,3.230597 v 0 0 l 2.928033,2.928032 v 0 0 0 a 4.1724465,4.1724465 0 0 0 3.118354,1.220013 v 0 0 h 0.200082 0.190323 0.161037 0.224484 0.161037 0.06345 0.204962 v 0 0 a 4.1724465,4.1724465 0 0 0 3.118356,-1.220013 v 0 0 0 l 2.928033,-2.928032 v 0 0 a 4.1724465,4.1724465 0 0 0 1.215132,-3.230597 4.1968466,4.1968466 0 1 1 8.344888,0 4.1724465,4.1724465 0 0 0 1.215147,3.230597 v 0 0 l 2.928033,2.928032 v 0 0 0 a 4.1724465,4.1724465 0 0 0 3.118341,1.220013 v 0 a 4.1870866,4.1870866 0 1 1 -3.611228,3.708843 4.1675663,4.1675663 0 0 0 -1.215148,-3.230597 v 0 0 l -2.928032,-2.928033 v 0 0 0 a 4.1724465,4.1724465 0 0 0 -3.118343,-1.220013 v 0 h -0.146448 -0.0439 -0.161019 -0.414812 -0.161019 -0.0439 -0.146447 v 0 a 4.1724465,4.1724465 0 0 0 -3.11836,1.220013 v 0 0 0 l -2.928027,2.928033 v 0 0 a 4.1675663,4.1675663 0 0 0 -1.215132,3.215956 4.2066068,4.2066068 0 0 1 -0.07807,1.366414 v 0.03416 q -0.04392,0.195203 -0.112234,0.390405 v 0.06345 q -0.06345,0.18057 -0.141523,0.351364 l -0.03416,0.07321 q -0.08296,0.175682 -0.185442,0.341605 l -0.03416,0.05856 A 4.1773265,4.1773265 0 0 1 36.82598,26.68718 v 0 a 4.1529261,4.1529261 0 0 1 -3.284275,1.590898 4.1529261,4.1529261 0 0 1 -3.284277,-1.586018 v 0 a 4.1724465,4.1724465 0 0 1 -0.248883,-0.351364 l -0.03905,-0.06832 c -0.06345,-0.107365 -0.126878,-0.214723 -0.180569,-0.326964 l -0.03905,-0.08296 q -0.07808,-0.165925 -0.136635,-0.341603 l -0.0244,-0.07808 q -0.06345,-0.18544 -0.107365,-0.375763 v -0.0488 a 4.2066068,4.2066068 0 0 1 -0.0732,-1.361536 4.1724465,4.1724465 0 0 0 -1.215134,-3.215956 v 0 0 l -2.928033,-2.928032 v 0 0 0 a 4.1724465,4.1724465 0 0 0 -3.118354,-1.220013 v 0 h -0.146392 -0.04392 -0.161037 -0.414805 -0.161037 -0.18057 -0.146411 v 0 a 4.1724465,4.1724465 0 0 0 -3.118356,1.220013 v 0 0 0 l -2.928032,2.928032 v 0 0 a 4.1724465,4.1724465 0 0 0 -1.215127,3.230591 4.1919666,4.1919666 0 1 1 -7.1297602,-2.518108 z"
       id="path10"
       style="fill:#45b9b6;stroke-width:0.488005" />
    <path
       class="cls-2"
       d="m 5.3239344,48.145699 a 1.444037,1.444037 0 0 1 2.888074,0 v 0.113257 c 0.663691,-0.853964 1.538041,-1.633177 3.0013306,-1.633177 1.329646,0 2.335375,0.58894 2.867687,1.615056 0.892471,-1.044236 1.957095,-1.615056 3.34337,-1.615056 2.147368,0 3.438506,1.291139 3.438506,3.742037 v 5.300464 a 1.444037,1.444037 0 0 1 -2.888074,0 v -4.349099 c 0,-1.359093 -0.607061,-2.070351 -1.689805,-2.070351 -1.082745,0 -1.746436,0.702198 -1.746436,2.070351 v 4.349099 a 1.4440366,1.4440366 0 1 1 -2.888073,0 v -4.349099 c 0,-1.359093 -0.607062,-2.070351 -1.6898056,-2.070351 -1.082744,0 -1.746434,0.702198 -1.746434,2.070351 v 4.349099 a 1.444037,1.444037 0 0 1 -2.888074,0 z"
       id="path12"
       style="fill:#45b9b6;stroke-width:0.226515" />
    <path
       class="cls-2"
       d="m 30.091145,57.224442 c -3.05796,0 -5.318584,-2.147367 -5.318584,-5.261956 v -0.03851 c 0,-2.906194 2.070351,-5.300464 5.033175,-5.300464 3.397733,0 4.899532,2.792937 4.899532,4.899531 a 1.3160553,1.3160553 0 0 1 -1.359094,1.386276 h -5.703661 c 0.285409,1.311525 1.196002,1.993336 2.49167,1.993336 a 3.3320438,3.3320438 0 0 0 2.052231,-0.679546 1.0759489,1.0759489 0 0 1 0.702199,-0.226516 1.1031307,1.1031307 0 0 1 1.121252,1.132578 1.1325777,1.1325777 0 0 1 -0.380546,0.853964 5.2755473,5.2755473 0 0 1 -3.538174,1.241305 z m 1.861958,-6.11592 c -0.169886,-1.291138 -0.930978,-2.165489 -2.145102,-2.165489 -1.214123,0 -1.975215,0.853964 -2.203997,2.165489 z"
       id="path14"
       style="fill:#45b9b6;stroke-width:0.226515" />
    <path
       class="cls-2"
       d="m 49.048233,55.66828 a 1.444037,1.444037 0 0 1 -2.888074,0 v -0.133644 c -0.702198,0.9491 -1.671685,1.651298 -3.171217,1.651298 -2.373884,0 -4.634508,-1.861958 -4.634508,-5.261956 v -0.03851 c 0,-3.397733 2.222117,-5.261956 4.634508,-5.261956 a 3.9096585,3.9096585 0 0 1 3.171217,1.519919 v -3.683143 a 1.444037,1.444037 0 0 1 2.888074,0 z m -7.805726,-3.780545 v 0.03851 c 0,1.689807 1.132578,2.811059 2.491671,2.811059 1.359093,0 2.469019,-1.121252 2.469019,-2.811059 v -0.03851 c 0,-1.689805 -1.121252,-2.811058 -2.469019,-2.811058 -1.347768,0 -2.491671,1.100866 -2.491671,2.811058 z"
       id="path16"
       style="fill:#45b9b6;stroke-width:0.226515" />
    <path
       class="cls-2"
       d="m 58.355757,57.224442 c -3.05796,0 -5.318585,-2.147367 -5.318585,-5.261956 v -0.03851 c 0,-2.906194 2.070352,-5.300464 5.033176,-5.300464 3.397733,0 4.899531,2.792937 4.899531,4.899531 a 1.3160553,1.3160553 0 0 1 -1.359094,1.386276 h -5.705926 c 0.285409,1.311525 1.196002,1.993336 2.491671,1.993336 a 3.3320438,3.3320438 0 0 0 2.052231,-0.679546 1.0782141,1.0782141 0 0 1 0.702198,-0.226516 1.1031307,1.1031307 0 0 1 1.121251,1.132578 1.1325777,1.1325777 0 0 1 -0.380546,0.853964 5.2755473,5.2755473 0 0 1 -3.535907,1.241305 z m 1.861958,-6.11592 c -0.169887,-1.291138 -0.930979,-2.165489 -2.145103,-2.165489 -1.214123,0 -1.975215,0.853964 -2.203996,2.165489 z"
       id="path18"
       style="fill:#45b9b6;stroke-width:0.226515" />
    <path
       class="cls-2"
       d="m 66.657552,54.907188 2.602664,-3.076082 -2.376149,-2.736307 a 1.6626241,1.6626241 0 0 1 -0.475682,-1.100866 1.2866083,1.2866083 0 0 1 1.329646,-1.329646 c 0.570819,0 0.969487,0.265023 1.359093,0.740705 l 1.88008,2.507528 1.918587,-2.507528 c 0.342037,-0.416788 0.740705,-0.740705 1.25263,-0.740705 a 1.2752825,1.2752825 0 0 1 1.359093,1.252631 1.5357755,1.5357755 0 0 1 -0.398666,0.987608 l -2.489407,2.883543 2.546036,2.924315 a 1.6626241,1.6626241 0 0 1 0.475682,1.100866 1.2866083,1.2866083 0 0 1 -1.329647,1.329647 c -0.570819,0 -0.969486,-0.265024 -1.359093,-0.740707 l -2.052231,-2.6978 -2.052231,2.6978 c -0.342038,0.419054 -0.740706,0.740707 -1.25263,0.740707 a 1.2752825,1.2752825 0 0 1 -1.359094,-1.252632 1.4429041,1.4429041 0 0 1 0.421319,-0.983077 z"
       id="path20"
       style="fill:#45b9b6;stroke-width:0.226515" />
    <path
       class="cls-1"
       d="m 17.342097,70.899098 -2.98321,-8.29953 a 1.3590933,1.3590933 0 0 1 -0.09514,-0.398668 0.72258462,0.72258462 0 0 1 0.740707,-0.702198 0.76788773,0.76788773 0 0 1 0.740705,0.607062 l 2.46449,7.368551 2.49167,-7.388937 a 0.74976649,0.74976649 0 0 1 0.722585,-0.588941 h 0.07702 a 0.7746832,0.7746832 0 0 1 0.758827,0.588941 l 2.469019,7.388937 2.507527,-7.407059 a 0.71805431,0.71805431 0 0 1 0.702198,-0.570819 0.70219822,0.70219822 0 0 1 0.722585,0.679547 1.3590933,1.3590933 0 0 1 -0.09514,0.398667 l -3.001332,8.319916 c -0.151765,0.437175 -0.453031,0.663691 -0.797335,0.663691 h -0.05663 c -0.380546,0 -0.663691,-0.226516 -0.797335,-0.663691 L 21.46241,63.73441 18.993391,70.894567 c -0.133645,0.437175 -0.419054,0.663691 -0.797335,0.663691 h -0.03851 a 0.86981974,0.86981974 0 0 1 -0.815456,-0.65916 z"
       id="path22"
       style="fill:#808f97;stroke-width:0.226515" />
    <path
       class="cls-1"
       d="m 32.10185,68.563722 v -0.03851 c 0,-2.070353 1.710193,-3.171218 4.197333,-3.171218 a 10.419715,10.419715 0 0 1 3.019453,0.419054 v -0.342039 c 0,-1.766821 -1.082744,-2.677413 -2.924316,-2.677413 a 6.1295109,6.1295109 0 0 0 -2.555095,0.548167 0.74523618,0.74523618 0 0 1 -0.265024,0.05663 0.65009965,0.65009965 0 0 1 -0.645568,-0.627448 0.67954667,0.67954667 0 0 1 0.398666,-0.607061 7.7423017,7.7423017 0 0 1 3.209726,-0.663691 c 1.386275,0 2.450899,0.36016 3.171218,1.082744 0.66369,0.665956 1.005729,1.615056 1.005729,2.867687 v 5.375214 a 0.6931376,0.6931376 0 0 1 -0.702199,0.722585 0.67954667,0.67954667 0 0 1 -0.702198,-0.679547 v -0.892471 a 4.3037956,4.3037956 0 0 1 -3.551764,1.689807 c -1.814389,-0.0045 -3.655961,-1.048768 -3.655961,-3.06249 z m 7.237173,-0.758827 v -0.9491 a 10.240768,10.240768 0 0 0 -2.888074,-0.425849 c -1.841571,0 -2.867687,0.797334 -2.867687,2.03864 v 0.03851 c 0,1.23451 1.132578,1.957095 2.46902,1.957095 1.803063,-0.0022 3.286741,-1.103131 3.286741,-2.661558 z"
       id="path24"
       style="fill:#808f97;stroke-width:0.226515" />
    <path
       class="cls-1"
       d="m 45.740352,62.237143 a 0.73844071,0.73844071 0 0 1 0.722585,-0.740706 0.72938009,0.72938009 0 0 1 0.740705,0.740706 v 1.841571 c 0.722585,-1.633177 2.147368,-2.620785 3.381874,-2.620785 a 0.70219822,0.70219822 0 0 1 0.722584,0.740706 0.72484978,0.72484978 0 0 1 -0.645567,0.740706 c -1.900464,0.226515 -3.456625,1.653563 -3.456625,4.482743 v 3.34337 a 0.7316455,0.7316455 0 1 1 -1.463291,0 z"
       id="path26"
       style="fill:#808f97;stroke-width:0.226515" />
    <path
       class="cls-1"
       d="m 59.208966,71.639804 c -2.697803,0 -4.899534,-2.070353 -4.899534,-5.110191 v -0.03851 c 0,-2.829179 1.993343,-5.110191 4.711529,-5.110191 2.906191,0 4.557488,2.373883 4.557488,4.983342 a 0.67954667,0.67954667 0 0 1 -0.679547,0.679547 h -7.110323 c 0.208397,2.126981 1.710198,3.322983 3.456626,3.322983 a 4.0138556,4.0138556 0 0 0 2.829183,-1.132577 0.6319784,0.6319784 0 0 1 1.064622,0.45303 0.62971325,0.62971325 0 0 1 -0.226513,0.475683 4.9833422,4.9833422 0 0 1 -3.703531,1.476882 z m 2.906199,-5.678746 c -0.151773,-1.784942 -1.177886,-3.343369 -3.134981,-3.343369 -1.710189,0 -3.001332,1.424783 -3.191605,3.343369 z"
       id="path28"
       style="fill:#808f97;stroke-width:0.226515" />
  </g>
</svg>
